<svg width="41" height="40" viewBox="0 0 41 40" fill="none" xmlns="http://www.w3.org/2000/svg">
<path d="M0.863745 11.9054C2.22157 5.35907 6.3995 1.713 12.9163 0.611556C17.7337 -0.202496 22.553 -0.212805 27.3623 0.634415C34.0723 1.81636 38.1061 5.67506 39.3911 12.3203C40.3839 17.456 40.3995 22.6464 39.3755 27.7773C38.0018 34.2782 33.7162 38.2911 27.2234 39.3885C22.406 40.2025 17.5867 40.2128 12.7774 39.3657C6.06737 38.1836 2.01566 34.1323 0.730714 27.4871C-0.312735 22.3175 -0.212334 17.0943 0.863745 11.9053V11.9054Z" fill="#FFF7E8"/>
<path fill-rule="evenodd" clip-rule="evenodd" d="M20.1249 31.2616C17.3485 31.2616 14.8143 30.2538 12.8565 28.59C14.2962 25.8723 17.0137 24.7824 20.1249 24.7824C23.2359 24.7824 25.9535 25.8724 27.3931 28.59C25.4354 30.2538 22.9013 31.2616 20.1249 31.2616ZM20.1249 7.08185C27.2686 7.08185 33.0783 12.8916 33.0783 20.0353C33.0783 27.1792 27.2686 32.9888 20.1249 32.9888C16.4491 32.9888 13.1283 31.4492 10.7688 28.9826C10.8226 28.8768 11.5844 27.3264 11.5882 27.3307C13.367 24.3445 16.5242 23.0552 20.1249 23.0552C23.7256 23.0552 26.8827 24.3445 28.6615 27.3307C30.3378 25.3695 31.3512 22.8232 31.3512 20.0353C31.3512 13.8249 26.3352 8.80892 20.1249 8.80892C13.9145 8.80892 8.89855 13.8249 8.89855 20.0353C8.89855 21.3413 9.12095 22.5943 9.52964 23.7587C9.00173 24.0042 8.49381 24.2852 7.99727 24.5869C7.46398 23.1701 7.17139 21.6363 7.17139 20.0353C7.17139 12.8916 12.9811 7.08185 20.1249 7.08185ZM16.812 16.8028C16.812 14.9574 18.3455 13.4553 20.2835 13.4553C22.2213 13.4553 23.7549 14.9574 23.7549 16.8028C23.7549 18.6482 22.2213 20.1502 20.2835 20.1502C18.3454 20.1502 16.812 18.6482 16.812 16.8028ZM25.2427 16.8028C25.2427 14.129 23.0018 11.9675 20.2835 11.9675C17.5652 11.9675 15.3242 14.129 15.3242 16.8028C15.3242 19.4767 17.5652 21.6381 20.2835 21.6381C23.0018 21.6381 25.2426 19.4767 25.2426 16.8028" fill="#FF8700"/>
</svg>
